# xmcd
#
# Track frame offsets:
#	150
#	13153
#	29513
#	48968
#	62754
#	84691
#	102615
#	119912
#	133369
#	148119
#	167518
#	191802
#	203757
#	217790
#
# Disc length: 3134
#
# Revision: 5
# Processed by: cddbd v1.5.1PL0 Copyright (c) Steve Scherf et al.
# Submitted via: ExactAudioCopy v0.90b3
# Normalized: r4:DSETVAR1
#
DISCID=d90c3c0e
DTITLE=Various Artist - Swingin' the Blues - volume III
DYEAR=1900
DGENRE=Blues
TTITLE0=Johnny Ferreira - Rock On (124 BPM)
TTITLE1=Kenny Neal - Blues Stew (116 BPM)
TTITLE2=Trudy Lynn - Do I Need You (Too) (101 BPM)
TTITLE3=Yvonne Jackson - I'm Trouble (130 BPM)
TTITLE4=Johnny Adams - Roadblock (133 BPM)
TTITLE5=Artie White - Chain of Fools (106 BPM)
TTITLE6=Trudy Lynn - Whole Lotta Leave Me Alones (107 BPM)
TTITLE7=Chicago Bob Nelson - Hit and Run Lover (118 BPM)
TTITLE8=Dick's Hat Band - Sick and Tired (130 BPM)
TTITLE9=Lynn August - It's My Soul (119 BPM)
TTITLE10=Maurice John Vaughn - (Everything I Do) Got to be Funky (116 BPM)
TTITLE11=Trudy Lynn - Fish Girl Blues (108 BPM)
TTITLE12=Big Kat Kaylor - I'm Scattered (112 BPM)
TTITLE13=Killer Joe - Sharks In the Water (137 BPM)
EXTD=
EXTT0=BPM 124
EXTT1=BPM 116
EXTT2=BPM 101
EXTT3=BPM 130
EXTT4=BPM 133
EXTT5=BPM 106
EXTT6=BPM 107
EXTT7=BPM 118
EXTT8=BPM 130
EXTT9=BPM 119
EXTT10=BPM 116
EXTT11=BPM 108
EXTT12=BPM 112
EXTT13=BPM 137
PLAYORDER=
